<?xml version="1.0" encoding="UTF-8"?>
<!DOCTYPE svg PUBLIC "-//W3C//DTD SVG 1.1//EN" "http://www.w3.org/Graphics/SVG/1.1/DTD/svg11.dtd">
<svg xmlns="http://www.w3.org/2000/svg" version="1.1" width="500px" height="135px" style="shape-rendering:geometricPrecision; text-rendering:geometricPrecision; image-rendering:optimizeQuality; fill-rule:evenodd; clip-rule:evenodd" xmlns:xlink="http://www.w3.org/1999/xlink">
<g><path style="opacity:1" fill="#fdfdfe" d="M -0.5,-0.5 C 166.167,-0.5 332.833,-0.5 499.5,-0.5C 499.5,44.5 499.5,89.5 499.5,134.5C 332.833,134.5 166.167,134.5 -0.5,134.5C -0.5,89.5 -0.5,44.5 -0.5,-0.5 Z"/></g>
<g><path style="opacity:1" fill="#606ffc" d="M 54.5,123.5 C 53.712,114.004 52.712,104.671 51.5,95.5C 44.1377,99.4636 36.471,102.964 28.5,106C 23.5429,107.683 20.2095,106.183 18.5,101.5C 16.7377,93.7475 18.4043,93.5808 23.5,101C 24.3317,101.688 24.9984,101.521 25.5,100.5C 20.728,95.9438 17.228,90.6105 15,84.5C 11.9322,86.1787 11.7655,88.1787 14.5,90.5C 14.1667,90.8333 13.8333,91.1667 13.5,91.5C 12.7348,90.3881 11.7348,89.7214 10.5,89.5C 8.88716,86.4534 9.55382,83.9534 12.5,82C 19.8333,77.3333 27.1667,72.6667 34.5,68C 25.9246,63.5567 17.9246,58.3901 10.5,52.5C 10.3537,50.0576 11.187,49.3909 13,50.5C 14.8364,48.9302 14.6697,47.4302 12.5,46C 12.8333,45.5 13.1667,45 13.5,44.5C 15.0245,46.4825 16.0245,48.8159 16.5,51.5C 17.48,48.9135 17.8134,46.2469 17.5,43.5C 21.136,38.8576 24.8027,34.1909 28.5,29.5C 29.7079,28.7659 31.0413,28.4326 32.5,28.5C 38.1298,30.9814 43.4632,33.9814 48.5,37.5C 48.8212,39.0481 49.8212,39.7148 51.5,39.5C 51.3335,29.8276 51.5002,20.1609 52,10.5C 52.7172,9.9558 53.2172,9.28913 53.5,8.5C 58.2328,6.95376 63.2328,6.28709 68.5,6.5C 72.9466,6.39609 77.2799,6.89609 81.5,8C 82,8.5 82.5,9 83,9.5C 83.0257,19.3269 83.6923,28.9936 85,38.5C 91.4165,33.7057 98.2499,29.539 105.5,26C 106.833,25.3333 108.167,25.3333 109.5,26C 116.797,32.6012 121.797,40.6012 124.5,50C 124.441,51.4357 124.108,52.769 123.5,54C 115.667,58.4155 108,63.0822 100.5,68C 105.497,71.8339 110.83,75.1672 116.5,78C 119.28,79.8123 121.78,81.979 124,84.5C 124.667,86.1667 124.667,87.8333 124,89.5C 120.469,95.0205 116.969,100.521 113.5,106C 110.833,106.667 108.167,106.667 105.5,106C 98.374,103.124 91.374,99.9575 84.5,96.5C 83.4155,104.842 82.2489,113.175 81,121.5C 80.1667,122.5 79.3333,123.5 78.5,124.5C 70.8829,125.633 63.2163,125.8 55.5,125C 54.944,124.617 54.6107,124.117 54.5,123.5 Z"/></g>
<g><path style="opacity:1" fill="#4951b6" d="M 67.5,9.5 C 71.4629,9.08892 75.1295,9.92225 78.5,12C 77.8333,12.1667 77.1667,12.3333 76.5,12.5C 69.0169,11.7298 61.6836,11.7298 54.5,12.5C 59.0498,11.8615 63.3831,10.8615 67.5,9.5 Z"/></g>
<g><path style="opacity:1" fill="#6e78e2" d="M 53.5,8.5 C 53.2172,9.28913 52.7172,9.9558 52,10.5C 51.5002,20.1609 51.3335,29.8276 51.5,39.5C 49.8212,39.7148 48.8212,39.0481 48.5,37.5C 49.1174,37.6107 49.6174,37.944 50,38.5C 50.3333,28.8333 50.6667,19.1667 51,9.5C 51.6708,8.74756 52.5041,8.41423 53.5,8.5 Z"/></g>
<g><path style="opacity:1" fill="#3c3c3f" d="M 482.5,20.5 C 483.449,19.8476 484.615,19.5143 486,19.5C 488.008,19.3068 489.508,19.9735 490.5,21.5C 487.904,20.7347 485.237,20.4013 482.5,20.5 Z"/></g>
<g><path style="opacity:1" fill="#f7f7f7" d="M 482.5,20.5 C 485.237,20.4013 487.904,20.7347 490.5,21.5C 490.833,22.5 491.5,23.1667 492.5,23.5C 493.265,26.0961 493.599,28.7628 493.5,31.5C 489.41,35.9891 484.743,36.6558 479.5,33.5C 478.701,30.5701 478.368,27.5701 478.5,24.5C 480.167,23.5 481.5,22.1667 482.5,20.5 Z"/></g>
<g><path style="opacity:1" fill="#494949" d="M 482.5,20.5 C 481.5,22.1667 480.167,23.5 478.5,24.5C 478.833,22.1667 480.167,20.8333 482.5,20.5 Z"/></g>
<g><path style="opacity:1" fill="#454545" d="M 490.5,21.5 C 491.833,21.5 492.5,22.1667 492.5,23.5C 491.5,23.1667 490.833,22.5 490.5,21.5 Z"/></g>
<g><path style="opacity:1" fill="#505069" d="M 482.5,23.5 C 484.792,23.2436 486.959,23.5769 489,24.5C 488.571,27.2249 488.404,29.8915 488.5,32.5C 486.64,27.3858 484.973,27.3858 483.5,32.5C 482.516,29.5719 482.183,26.5719 482.5,23.5 Z"/></g>
<g><path style="opacity:1" fill="#76768d" d="M 448.5,66.5 C 448.44,67.0431 448.107,67.3764 447.5,67.5C 446.501,53.5159 446.167,39.5159 446.5,25.5C 442.167,25.5 437.833,25.5 433.5,25.5C 433.5,48.5 433.5,71.5 433.5,94.5C 432.502,71.3393 432.169,48.006 432.5,24.5C 437.5,24.5 442.5,24.5 447.5,24.5C 447.171,38.6766 447.504,52.6766 448.5,66.5 Z"/></g>
<g><path style="opacity:1" fill="#2a2c52" d="M 448.5,66.5 C 452.5,61.8333 456.833,57.5 461.5,53.5C 467.358,53.1778 473.025,53.5111 478.5,54.5C 472.703,60.7981 466.703,66.9648 460.5,73C 467.5,80 474.5,87 481.5,94C 475.5,94.6667 469.5,94.6667 463.5,94C 458.333,88.8333 453.167,83.6667 448,78.5C 447.501,83.8229 447.334,89.1563 447.5,94.5C 442.833,94.5 438.167,94.5 433.5,94.5C 433.5,71.5 433.5,48.5 433.5,25.5C 437.833,25.5 442.167,25.5 446.5,25.5C 446.167,39.5159 446.501,53.5159 447.5,67.5C 448.107,67.3764 448.44,67.0431 448.5,66.5 Z"/></g>
<g><path style="opacity:1" fill="#c7c7d7" d="M 484.5,24.5 C 488.31,25.7542 488.31,26.7542 484.5,27.5C 484.5,26.5 484.5,25.5 484.5,24.5 Z"/></g>
<g><path style="opacity:1" fill="#38383a" d="M 492.5,23.5 C 494.026,24.4919 494.693,25.9919 494.5,28C 494.486,29.3847 494.152,30.5514 493.5,31.5C 493.599,28.7628 493.265,26.0961 492.5,23.5 Z"/></g>
<g><path style="opacity:1" fill="#2a2c52" d="M 168.5,28.5 C 183.934,30.1447 193.767,38.478 198,53.5C 200.421,75.5168 190.921,89.0168 169.5,94C 161.841,94.4997 154.174,94.6664 146.5,94.5C 146.5,72.5 146.5,50.5 146.5,28.5C 153.833,28.5 161.167,28.5 168.5,28.5 Z"/></g>
<g><path style="opacity:1" fill="#2b2d53" d="M 268.5,26.5 C 292.905,25.417 306.239,36.917 308.5,61C 308.635,77.0834 301.301,88.0834 286.5,94C 293.278,97.6753 299.778,97.1753 306,92.5C 311.608,98.1313 311.441,103.298 305.5,108C 300.43,110.424 295.097,111.091 289.5,110C 283.572,107.357 277.405,105.524 271,104.5C 267.513,104.744 264.513,106.077 262,108.5C 257.713,105.467 257.546,102.3 261.5,99C 263.67,97.4138 266.004,96.0804 268.5,95C 256.556,91.7264 248.389,84.2264 244,72.5C 239.346,50.1335 247.512,34.8002 268.5,26.5 Z"/></g>
<g><path style="opacity:1" fill="#454545" d="M 478.5,24.5 C 478.368,27.5701 478.701,30.5701 479.5,33.5C 478.883,33.3893 478.383,33.056 478,32.5C 477.199,29.633 477.366,26.9664 478.5,24.5 Z"/></g>
<g><path style="opacity:1" fill="#f6f8fc" d="M 64.5,29.5 C 71.5614,29.1313 73.5614,31.9646 70.5,38C 62.749,39.0913 60.749,36.258 64.5,29.5 Z"/></g>
<g><path style="opacity:1" fill="#2d2e54" d="M 372.5,27.5 C 380.545,27.0476 384.378,30.7143 384,38.5C 378.581,46.41 373.248,46.41 368,38.5C 367.333,36.5 367.333,34.5 368,32.5C 369.366,30.6383 370.866,28.9717 372.5,27.5 Z"/></g>
<g><path style="opacity:1" fill="#484866" d="M 168.5,28.5 C 161.167,28.5 153.833,28.5 146.5,28.5C 146.5,50.5 146.5,72.5 146.5,94.5C 145.503,72.3396 145.169,50.0062 145.5,27.5C 153.352,27.1746 161.018,27.508 168.5,28.5 Z"/></g>
<g><path style="opacity:1" fill="#434aa3" d="M 28.5,29.5 C 24.8027,34.1909 21.136,38.8576 17.5,43.5C 19.4996,37.5183 22.9996,32.5183 28,28.5C 28.3988,28.7284 28.5654,29.0618 28.5,29.5 Z"/></g>
<g><path style="opacity:1" fill="#494948" d="M 493.5,31.5 C 493.141,33.371 492.141,34.871 490.5,36C 487.5,36.6667 484.5,36.6667 481.5,36C 480.619,35.2917 479.953,34.4584 479.5,33.5C 484.743,36.6558 489.41,35.9891 493.5,31.5 Z"/></g>
<g><path style="opacity:1" fill="#4850ab" d="M 107.5,29.5 C 112.15,31.9849 115.65,35.6516 118,40.5C 118.815,42.6228 119.815,44.6228 121,46.5C 121.798,48.2588 121.631,49.9255 120.5,51.5C 117.618,47.6761 115.785,43.3428 115,38.5C 112.474,35.3984 109.974,32.3984 107.5,29.5 Z"/></g>
<g><path style="opacity:1" fill="#fbfbfb" d="M 161.5,41.5 C 176.37,42.5419 183.203,50.5419 182,65.5C 180.247,74.0875 175.08,79.0875 166.5,80.5C 164.833,80.5 163.167,80.5 161.5,80.5C 161.5,67.5 161.5,54.5 161.5,41.5 Z"/></g>
<g><path style="opacity:1" fill="#6370eb" d="M 32.5,28.5 C 31.0413,28.4326 29.7079,28.7659 28.5,29.5C 28.5654,29.0618 28.3988,28.7284 28,28.5C 22.9996,32.5183 19.4996,37.5183 17.5,43.5C 17.8134,46.2469 17.48,48.9135 16.5,51.5C 16.0245,48.8159 15.0245,46.4825 13.5,44.5C 13.1667,45 12.8333,45.5 12.5,46C 14.6697,47.4302 14.8364,48.9302 13,50.5C 11.187,49.3909 10.3537,50.0576 10.5,52.5C 9.38705,51.0536 9.22039,49.3869 10,47.5C 13.1647,41.1663 16.8313,35.1663 21,29.5C 24.5678,24.6107 28.4012,24.2774 32.5,28.5 Z"/></g>
<g><path style="opacity:1" fill="#fafafb" d="M 271.5,41.5 C 281.879,40.4308 288.713,44.7641 292,54.5C 293.736,63.5184 291.57,71.3517 285.5,78C 273.049,83.6835 264.549,80.1835 260,67.5C 257.134,55.5837 260.968,46.917 271.5,41.5 Z"/></g>
<g><path style="opacity:1" fill="#5a64cb" d="M 69.5,45.5 C 67.7367,44.0462 66.4033,44.3796 65.5,46.5C 65.3334,61.1705 65.5001,75.8371 66,90.5C 67.045,89.6266 67.8783,88.6266 68.5,87.5C 69.1667,87.5 69.5,87.1667 69.5,86.5C 74.5751,83.7876 75.7418,79.7876 73,74.5C 72.1841,73.1772 71.0174,72.5106 69.5,72.5C 69.5,71.5 69.5,70.5 69.5,69.5C 73.8529,71.3475 76.5196,74.6809 77.5,79.5C 75.2835,83.3077 72.6169,86.641 69.5,89.5C 66.2519,90.9287 64.9186,93.4287 65.5,97C 64.6615,101.101 65.9948,102.601 69.5,101.5C 67.0289,103.959 64.5289,103.626 62,100.5C 62.0089,92.4996 62.6756,92.4996 64,100.5C 64.1667,99.3333 64.3333,98.1667 64.5,97C 64.7482,79.9124 64.4149,62.7457 63.5,45.5C 60.9923,47.2724 59.9923,49.7724 60.5,53C 60.7721,57.4272 61.6055,61.5938 63,65.5C 58.0526,61.2363 56.0526,55.9029 57,49.5C 59.3222,47.3432 61.4889,45.0099 63.5,42.5C 66.7683,41.513 70.1016,41.1796 73.5,41.5C 73.5,42.5 73.5,43.5 73.5,44.5C 71.901,44.2322 70.5676,44.5655 69.5,45.5 Z"/></g>
<g><path style="opacity:1" fill="#9697a8" d="M 461.5,53.5 C 467.346,52.1834 473.346,52.1834 479.5,53.5C 479.376,54.1067 479.043,54.44 478.5,54.5C 473.025,53.5111 467.358,53.1778 461.5,53.5 Z"/></g>
<g><path style="opacity:1" fill="#2b2c52" d="M 229.5,51.5 C 233.814,51.2716 237.814,52.2716 241.5,54.5C 239.833,57.8333 238.167,61.1667 236.5,64.5C 232.589,64.6924 228.589,64.859 224.5,65C 222.185,66.1094 220.685,67.9427 220,70.5C 219.5,78.4931 219.334,86.4931 219.5,94.5C 214.833,94.5 210.167,94.5 205.5,94.5C 205.5,80.8333 205.5,67.1667 205.5,53.5C 210.167,53.5 214.833,53.5 219.5,53.5C 219.34,55.1992 219.506,56.8659 220,58.5C 222.825,55.524 225.992,53.1907 229.5,51.5 Z"/></g>
<g><path style="opacity:1" fill="#2c2e54" d="M 408.5,51.5 C 415.271,50.7617 421.271,52.4284 426.5,56.5C 425,59.5 423.5,62.5 422,65.5C 415.363,61.9069 410.03,63.2402 406,69.5C 404.419,75.0616 405.919,79.5616 410.5,83C 414.807,83.299 418.974,83.4657 423,83.5C 424.303,85.9398 425.47,88.4398 426.5,91C 426.355,91.772 426.022,92.4387 425.5,93C 410.164,99.0713 398.664,94.9046 391,80.5C 388.665,65.8275 394.499,56.1609 408.5,51.5 Z"/></g>
<g><path style="opacity:1" fill="#2a2c52" d="M 329.5,76.5 C 330.737,83.1999 334.737,85.3666 341.5,83C 343.259,81.992 344.426,80.492 345,78.5C 345.5,70.1733 345.666,61.84 345.5,53.5C 350.167,53.5 354.833,53.5 359.5,53.5C 359.666,63.5056 359.5,73.5056 359,83.5C 356.957,90.2094 352.457,94.0427 345.5,95C 339.5,95.6667 333.5,95.6667 327.5,95C 320.843,92.8437 316.843,88.3437 315.5,81.5C 315.5,72.1667 315.5,62.8333 315.5,53.5C 319.833,53.5 324.167,53.5 328.5,53.5C 328.175,61.3516 328.508,69.0182 329.5,76.5 Z"/></g>
<g><path style="opacity:1" fill="#7e7f94" d="M 329.5,76.5 C 328.508,69.0182 328.175,61.3516 328.5,53.5C 324.167,53.5 319.833,53.5 315.5,53.5C 315.5,62.8333 315.5,72.1667 315.5,81.5C 314.506,72.0144 314.173,62.3478 314.5,52.5C 319.5,52.5 324.5,52.5 329.5,52.5C 329.5,60.5 329.5,68.5 329.5,76.5 Z"/></g>
<g><path style="opacity:1" fill="#2a2c51" d="M 368.5,53.5 C 373.167,53.5 377.833,53.5 382.5,53.5C 382.5,67.1667 382.5,80.8333 382.5,94.5C 377.833,94.5 373.167,94.5 368.5,94.5C 368.5,80.8333 368.5,67.1667 368.5,53.5 Z"/></g>
<g><path style="opacity:1" fill="#fdfdf4" d="M 65.5,46.5 C 66.5,46.5 67.5,46.5 68.5,46.5C 68.5,60.1667 68.5,73.8333 68.5,87.5C 67.8783,88.6266 67.045,89.6266 66,90.5C 65.5001,75.8371 65.3334,61.1705 65.5,46.5 Z"/></g>
<g><path style="opacity:1" fill="#b0b2c5" d="M 161.5,41.5 C 161.5,54.5 161.5,67.5 161.5,80.5C 163.167,80.5 164.833,80.5 166.5,80.5C 164.735,81.4614 162.735,81.7947 160.5,81.5C 160.171,67.9895 160.504,54.6562 161.5,41.5 Z"/></g>
<g><path style="opacity:1" fill="#d6dcfe" d="M 69.5,45.5 C 69.5,53.5 69.5,61.5 69.5,69.5C 69.5,70.5 69.5,71.5 69.5,72.5C 69.5,77.1667 69.5,81.8333 69.5,86.5C 69.5,87.1667 69.1667,87.5 68.5,87.5C 68.5,73.8333 68.5,60.1667 68.5,46.5C 67.5,46.5 66.5,46.5 65.5,46.5C 66.4033,44.3796 67.7367,44.0462 69.5,45.5 Z"/></g>
<g><path style="opacity:1" fill="#606ff4" d="M 69.5,72.5 C 71.0174,72.5106 72.1841,73.1772 73,74.5C 75.7418,79.7876 74.5751,83.7876 69.5,86.5C 69.5,81.8333 69.5,77.1667 69.5,72.5 Z"/></g>
<g><path style="opacity:1" fill="#5d68d9" d="M 18.5,101.5 C 15.8601,97.5401 13.1934,93.5401 10.5,89.5C 11.7348,89.7214 12.7348,90.3881 13.5,91.5C 13.8333,91.1667 14.1667,90.8333 14.5,90.5C 11.7655,88.1787 11.9322,86.1787 15,84.5C 17.228,90.6105 20.728,95.9438 25.5,100.5C 24.9984,101.521 24.3317,101.688 23.5,101C 18.4043,93.5808 16.7377,93.7475 18.5,101.5 Z"/></g>
<g><path style="opacity:1" fill="#4e57ba" d="M 116.5,85.5 C 117.552,85.3505 118.552,85.5172 119.5,86C 117.332,91.0878 114.666,95.9211 111.5,100.5C 110.635,101.583 109.635,101.749 108.5,101C 111.459,95.9337 114.126,90.7671 116.5,85.5 Z"/></g>
<g><path style="opacity:1" fill="#e4e7fd" d="M 69.5,89.5 C 69.5,93.5 69.5,97.5 69.5,101.5C 65.9948,102.601 64.6615,101.101 65.5,97C 64.9186,93.4287 66.2519,90.9287 69.5,89.5 Z"/></g>
<g><path style="opacity:1" fill="#8890eb" d="M 51.5,95.5 C 52.712,104.671 53.712,114.004 54.5,123.5C 53.7784,123.082 53.2784,122.416 53,121.5C 52.073,112.855 51.573,104.189 51.5,95.5 Z"/></g>
<g><path style="opacity:1" fill="#4550b6" d="M 60.5,120.5 C 65.8437,120.334 71.1771,120.501 76.5,121C 70.6123,122.576 64.6123,122.909 58.5,122C 59.4158,121.722 60.0825,121.222 60.5,120.5 Z"/></g>
</svg>
